<svg xmlns="http://www.w3.org/2000/svg" version="1.1" xmlns:xlink="http://www.w3.org/1999/xlink" xmlns:svgjs="http://svgjs.com/svgjs" width="1440" height="560" preserveAspectRatio="none" viewBox="0 0 1440 560"><g mask="url(&quot;#SvgjsMask1070&quot;)" fill="none"><rect width="1440" height="560" x="0" y="0" fill="rgba(255, 255, 255, 1)"></rect><path d="M948.445,586.669C984.311,586.123,1022.403,579.059,1041.35,548.601C1061.185,516.716,1057.444,475.361,1037.465,443.566C1018.688,413.685,983.702,399.215,948.445,400.755C915.818,402.18,889.742,423.411,871.95,450.797C851.909,481.645,832.459,519.452,850.506,551.508C868.745,583.904,911.272,587.235,948.445,586.669" fill="rgba(152, 229, 30, 0.59)" class="triangle-float1"></path><path d="M1404.180022039295 563.0607582502507L1408.357825536687 443.42411913267915 1288.7211864191154 439.24631563528703 1284.5433829217234 558.8829547528586z" fill="rgba(152, 229, 30, 0.59)" class="triangle-float2"></path><path d="M178.579,225.28C213.532,227.219,252.039,217.705,268.757,186.948C285.005,157.054,268.674,122.104,250.182,93.544C233.67,68.042,208.945,48.639,178.579,47.671C146.48,46.647,114.536,60.826,98.603,88.71C82.777,116.406,88.092,150.293,104.212,177.819C120.139,205.017,147.109,223.534,178.579,225.28" fill="rgba(152, 229, 30, 0.59)" class="triangle-float1"></path><path d="M155.6953950668449 341.898294455533L220.24750088624066 493.9735256690613 307.7706262803732 277.34618863613724z" fill="rgba(152, 229, 30, 0.59)" class="triangle-float3"></path><path d="M416.46894822806314 249.7488013477568L460.26582120163465 163.79259834155062 374.30961819542847 119.9957253679791 330.51274522185696 205.9519283741853z" fill="rgba(152, 229, 30, 0.59)" class="triangle-float3"></path><path d="M766.7591092604106 124.81572665040183L815.1311128065308 29.880324318453773 648.5420075355487 4.790020165247512z" fill="rgba(152, 229, 30, 0.59)" class="triangle-float2"></path><path d="M1016.0507167620469 264.314935017787L1027.3138319731913 103.24488337231568 866.24378032772 91.98176816117137 854.9806651165757 253.05181980664267z" fill="rgba(152, 229, 30, 0.59)" class="triangle-float1"></path><path d="M536.2357659739397 443.7000362742334L631.6792211805149 425.1477079460073 613.1268928522887 329.7042527394321 517.6834376457135 348.2565810676582z" fill="rgba(152, 229, 30, 0.59)" class="triangle-float3"></path><path d="M686.655,166.472C702.804,167.469,721.501,166.891,729.916,153.071C738.528,138.928,731.478,121.324,722.695,107.286C714.556,94.278,701.997,84.167,686.655,83.926C670.918,83.679,656.108,92.291,648.601,106.124C641.403,119.388,643.703,135.48,651.752,148.245C659.256,160.145,672.614,165.605,686.655,166.472" fill="rgba(152, 229, 30, 0.59)" class="triangle-float1"></path><path d="M405.023,369.563C421.361,370.317,438.413,364.877,446.793,350.832C455.345,336.5,452.739,318.431,444.025,304.197C435.709,290.613,420.93,281.779,405.023,282.602C390.304,283.363,379.542,294.989,372.435,307.901C365.634,320.257,362.842,334.794,369.432,347.264C376.443,360.53,390.034,368.872,405.023,369.563" fill="rgba(152, 229, 30, 0.59)" class="triangle-float2"></path><path d="M1263.888,452.472C1315.66,451.44,1364.286,424.618,1388.839,379.027C1412.266,335.528,1403.038,283.59,1377.677,241.19C1353.074,200.057,1311.805,171.237,1263.888,170.124C1214.001,168.965,1167.018,193.375,1140.557,235.681C1112.35,280.777,1103.693,337.956,1129.995,384.189C1156.547,430.862,1210.202,453.543,1263.888,452.472" fill="rgba(152, 229, 30, 0.59)" class="triangle-float2"></path></g><defs><mask id="SvgjsMask1070"><rect width="1440" height="560" fill="#ffffff"></rect></mask><style>
            @keyframes float1 {
                0%{transform: translate(0, 0)}
                50%{transform: translate(-10px, 0)}
                100%{transform: translate(0, 0)}
            }

            .triangle-float1 {
                animation: float1 5s infinite;
            }

            @keyframes float2 {
                0%{transform: translate(0, 0)}
                50%{transform: translate(-5px, -5px)}
                100%{transform: translate(0, 0)}
            }

            .triangle-float2 {
                animation: float2 4s infinite;
            }

            @keyframes float3 {
                0%{transform: translate(0, 0)}
                50%{transform: translate(0, -10px)}
                100%{transform: translate(0, 0)}
            }

            .triangle-float3 {
                animation: float3 6s infinite;
            }
        </style></defs></svg>